<svg width="500px" height="525px" viewBox="0 0 500 500" xmlns="http://www.w3.org/2000/svg" preserveAspectRatio="xMidYMid meet">
    <defs>
      <clipPath id="formato">
        <ellipse cx="250.001" cy="250" rx="175.786" ry="249.802"/>
      </clipPath>
    </defs>

    <g id="fundo" fill="#ffffff" x="0">
      <ellipse cx="250.001" cy="250" rx="175.786" ry="249.802"/>
    </g>

    <g id="estampa1" fill="#ff241d" x="0" clip-path="url(#formato)"><g><rect x="125" width="50" height="100%"/><rect x="225" width="50" height="100%"/><rect x="325" width="50" height="100%"/></g><rect id="estampa2" width="500" height="100" fill="#000000"/></g>

    <g id="borda" fill="none" stroke="#000000" stroke-width="10" x="0">
      <ellipse cx="250.001" cy="250" rx="175.786" ry="249.802"/>
    </g>

    <g id="adorno" transform="scale(3) translate(47, 47)">
    <polygon id="svg_21" points="35.4370002746582,0 43.801998138427734,25.749004364013672 70.86900329589844,25.749004364013672 48.97099685668945,41.65800094604492 57.33500289916992,67.40700149536133 35.4370002746582,51.49399948120117 13.527999877929688,67.40700149536133 21.901996612548828,41.65800094604492 0,25.749004364013672 27.067996978759766,25.749004364013672 " fill="#FFFFFF"/>
    <path id="svg_22" d="m43.802,25.749l-3.622,-11.148c-0.94199,0.801 -1.87299,1.552 -2.309,2.055c-2.435,2.824 -5.513,6.135 -6.127,9.941c-0.848,5.259 3.956,8.48199 3.826,13.3c-0.124,4.695 -5.036,3.975 -7.896,5.913c-2.418,1.637 -4.316,6.006 -5.788,8.596c-2.026,3.561 -4.384,6.887 -6.504,10.391c-0.389,0.646 -1.052,1.492 -1.787,2.42l-0.067,0.191l21.909,-15.914l21.898,15.914l-8.36401,-25.75l21.89801,-15.909h-27.06701l0,0z" fill="#C5D1D0"/>
</g>
</svg>
