<svg width="500px" height="525px" viewBox="0 0 500 500" xmlns="http://www.w3.org/2000/svg" preserveAspectRatio="xMidYMid meet">
    <defs>
      <clipPath id="formato">
        <path d="M249 37c-11 0-66-2-88-5-42-8-50-10-65-19S79 0 79 0s-8 20-14 70c-4 34-6 69-5 113 1 21 6 52 11 70a573 573 0 0 0 167 237l12 11s146-133 177-248c5-18 10-49 11-70 1-44-1-79-5-113-6-50-14-70-14-70s-2 4-17 13-23 11-65 19c-22 3-77 5-88 5z"/>
      </clipPath>
    </defs>

    <g id="fundo" fill="#063780" x="0">
      <path d="M249 37c-11 0-66-2-88-5-42-8-50-10-65-19S79 0 79 0s-8 20-14 70c-4 34-6 69-5 113 1 21 6 52 11 70a573 573 0 0 0 167 237l12 11s146-133 177-248c5-18 10-49 11-70 1-44-1-79-5-113-6-50-14-70-14-70s-2 4-17 13-23 11-65 19c-22 3-77 5-88 5z"/>
    </g>

    <g id="estampa1" fill="#0066ff" x="0" clip-path="url(#formato)"><defs><pattern id="Pattern" x="0" y="0" width="200" height="200" patternUnits="userSpaceOnUse"><rect x="100" y="0" width="100" height="100"/><rect x="0" y="100" width="100" height="100"/></pattern></defs><rect fill="url(#Pattern)" x="0" y="0" width="500" height="500" clip-path="url(#corte-formato)" /></g>

    <g id="borda" fill="none" stroke="#ffab66" stroke-width="10" x="0">
      <path d="M249 37c-11 0-66-2-88-5-42-8-50-10-65-19S79 0 79 0s-8 20-14 70c-4 34-6 69-5 113 1 21 6 52 11 70a573 573 0 0 0 167 237l12 11s146-133 177-248c5-18 10-49 11-70 1-44-1-79-5-113-6-50-14-70-14-70s-2 4-17 13-23 11-65 19c-22 3-77 5-88 5z"/>
    </g>

    <g id="adorno" transform="scale(2.3) translate(70, 60)">
    <polygon id="svg_56" points="15.74100112915039,103.54300117492676 26.34400177001953,98.35800361633301 71.1989974975586,23.41900062561035 65.68000030517578,20.12299919128418 " fill="#BDBCAF"/>
    <polygon id="svg_57" points="15.74100112915039,103.54300117492676 15.306999206542969,91.75200080871582 60.16200256347656,16.818998336791992 65.68000030517578,20.12299919128418 " fill="#E6E6E5"/>
    <polygon id="svg_58" points="63.540000915527344,23.691999435424805 78.50800323486328,29.75200080871582 80.84400177001953,25.85999870300293 67.14800262451172,17.663000106811523 " fill="#383A39"/>
    <polygon id="svg_59" points="51.12799835205078,13.364999771118164 53.459999084472656,9.47199821472168 64.91000366210938,16.318998336791992 73.64199829101562,3.710000991821289 76.37799835205078,5.351999282836914 68.73300170898438,20.288000106811523 66.40900421142578,18.89900016784668 63.540000915527344,23.691999435424805 " fill="#797763"/>
    <polygon id="svg_60" points="75.01200103759766,4.533998489379883 75.01499938964844,4.533998489379883 76.37799835205078,5.351999282836914 68.73300170898438,20.288000106811523 66.40900421142578,18.89900016784668 66.40900421142578,18.89900016784668 " fill="#383A39"/>
    <polygon id="svg_61" points="65.10700225830078,103.54300117492676 54.500999450683594,98.35800361633301 9.645999908447266,23.41900062561035 15.16400146484375,20.12299919128418 " fill="#E6E6E5"/>
    <polygon id="svg_62" points="65.10700225830078,103.54300117492676 65.53700256347656,91.75200080871582 20.68199920654297,16.818998336791992 15.16400146484375,20.12299919128418 " fill="#BDBCAF"/>
    <polygon id="svg_63" points="17.304000854492188,23.691999435424805 2.3330001831054688,29.75200080871582 0,25.85999870300293 13.694000244140625,17.663000106811523 " fill="#797763"/>
    <polygon id="svg_64" points="4.465999603271484,5.351999282836914 7.201999664306641,3.710000991821289 15.934001922607422,16.318998336791992 27.384002685546875,9.47199821472168 29.71600341796875,13.364999771118164 17.304000854492188,23.691999435424805 14.435001373291016,18.89900016784668 12.11199951171875,20.288000106811523 " fill="#383A39"/>
    <polygon id="svg_65" points="5.833000183105469,4.533998489379883 5.833000183105469,4.533998489379883 4.465999603271484,5.351999282836914 12.11199951171875,20.288000106811523 14.435001373291016,18.89900016784668 14.435001373291016,18.89900016784668 " fill="#797763"/>
    <polygon id="svg_66" points="64.91000366210938,16.318998336791992 71.7969970703125,6.371999740600586 72.19400024414062,6.809999465942383 65.10700225830078,17.073999404907227 " fill="#E6E6E5"/>
    <polygon id="svg_67" points="0,25.85999870300293 12.109001159667969,20.29400062561035 7.107002258300781,8.413999557495117 5.9850006103515625,8.330999374389648 11.44900131225586,19.00699806213379 " fill="#E6E6E5"/>
    <path id="svg_68" d="m71.078,5.611c0.589,2.174 2.84,3.461 5.008,2.859c2.178,-0.589 3.455,-2.84 2.859,-5.014c-0.593,-2.175 -2.84,-3.456 -5.015,-2.86c-2.173,0.591 -3.448,2.841 -2.852,5.015z" fill="#383A39"/>
    <path id="svg_69" d="m73.931,0.597c0.308,-0.088 0.612,-0.05 0.913,-0.063c0.102,0.063 0.216,0.102 0.297,0.184c1.345,1.287 0.353,4.5 -2.173,7.341c-0.895,-0.513 -1.598,-1.375 -1.89,-2.447c-0.596,-2.175 0.679,-4.425 2.853,-5.015z" fill="#797763"/>
    <path id="svg_70" d="m72.264,5.282c0.418,1.515 1.984,2.416 3.499,1.997c1.516,-0.412 2.409,-1.984 1.997,-3.493c-0.419,-1.521 -1.984,-2.409 -3.506,-1.998c-1.509,0.419 -2.396,1.985 -1.99,3.494z" fill="#BDBCAF"/>
    <path id="svg_71" d="m74.254,1.789c0.33,-0.095 0.666,-0.095 0.98901,-0.07c0.12,1.401 -0.612,3.214 -2.07301,4.736c-0.031,0.032 -0.06699,0.057 -0.102,0.095c-0.355,-0.349 -0.659,-0.748 -0.805,-1.268c-0.405,-1.509 0.482,-3.075 1.991,-3.493z" fill="#E6E6E5"/>
    <path id="svg_72" d="m1.813,3.843c0.375,-2.225 2.495,-3.714 4.711,-3.334c2.222,0.381 3.715,2.492 3.334,4.71c-0.38,2.226 -2.491,3.715 -4.716,3.335c-2.219,-0.375 -3.709,-2.492 -3.329,-4.711z" fill="#383A39"/>
    <path id="svg_73" d="m5.478,5.301c0.995,0.862 1.818,1.775 2.46,2.675c-0.812,0.501 -1.781,0.754 -2.796,0.577c-2.219,-0.375 -3.709,-2.491 -3.329,-4.71c0.052,-0.272 0.191,-0.501 0.286,-0.748c1.091,0.507 2.257,1.249 3.379,2.206z" fill="#797763"/>
    <path id="svg_74" d="m3.031,4.052c0.267,-1.553 1.737,-2.587 3.28,-2.327c1.557,0.26 2.597,1.737 2.337,3.284c-0.276,1.553 -1.741,2.586 -3.297,2.326c-1.541,-0.265 -2.58,-1.736 -2.32,-3.283z" fill="#BDBCAF"/>
    <path id="svg_75" d="m3.037,4.166c0.443,0.286 0.899,0.615 1.351,0.996c0.817,0.704 1.47,1.452 1.923,2.149c-0.307,0.051 -0.63,0.083 -0.96,0.025c-1.499,-0.26 -2.511,-1.667 -2.314,-3.17z" fill="#E6E6E5"/>
    <polygon id="svg_76" points="51.819000244140625,12.204999923706055 63.540000915527344,23.691999435424805 51.12799835205078,13.364999771118164 " fill="#E6E6E5"/>
    <path id="svg_77" d="m40.42,21.435c-14.27499,8.419 -31.767,11.45 -31.767,11.45v18.079c0,31.502 31.767,36.992 31.767,36.992v-66.521l0,0z" fill="#C3882B"/>
    <path id="svg_78" d="m40.42,25.15c-12.686,7.475 -28.22,10.169 -28.22,10.169v16.063c0,27.97 28.211,32.857 28.22,32.857v-59.089l0,0z" fill="#D18A00"/>
    <path id="svg_79" d="m40.42,21.435c14.277,8.419 31.76801,11.45 31.76801,11.45v18.079c0,31.502 -31.76801,36.992 -31.76801,36.992v-66.521l0,0z" fill="#93742C"/>
    <path id="svg_80" d="m40.42,25.15c12.687,7.475 28.224,10.169 28.224,10.169v16.063c0,27.97 -28.21,32.857 -28.224,32.857v-59.089l0,0z" fill="#C3882B"/>
</g>
</svg>
