<svg width="500px" height="525px" viewBox="0 0 500 500" xmlns="http://www.w3.org/2000/svg" preserveAspectRatio="xMidYMid meet">
    <defs>
      <clipPath id="formato">
        <path d="M454.05,128.223C335.565,115.063,249.995-0.117,249.995-0.117s-85.55,115.18-204.04,128.34 c0,0-62.53,263.285,204.04,371.896C516.565,391.508,454.05,128.223,454.05,128.223z"/>
      </clipPath>
    </defs>

    <g id="fundo" fill="#000000" x="0">
      <path d="M454.05,128.223C335.565,115.063,249.995-0.117,249.995-0.117s-85.55,115.18-204.04,128.34 c0,0-62.53,263.285,204.04,371.896C516.565,391.508,454.05,128.223,454.05,128.223z"/>
    </g>

    <g id="estampa1" fill="#0066ff" x="0" clip-path="url(#formato)"><rect width="100%" height="50" y="0"/><rect width="100%" height="50" y="100"/><rect width="100%" height="50" y="200"/><rect width="100%" height="50" y="300"/><rect width="100%" height="50" y="400"/></g>

    <g id="borda" fill="none" stroke="#ffcb00" stroke-width="10" x="0">
      <path d="M454.05,128.223C335.565,115.063,249.995-0.117,249.995-0.117s-85.55,115.18-204.04,128.34 c0,0-62.53,263.285,204.04,371.896C516.565,391.508,454.05,128.223,454.05,128.223z"/>
    </g>

    
  <g id="adorno" transform="scale(0.8) translate(220, 160)">
    <path d="M176 0c6 0 9 5 5 11l-64 91c-4 6-1 11 6 11h62c7 0 9 4 4 9L22 303c-5 5-6 4-4-2l47-114c2-7-1-12-8-12H9c-7 0-10-5-7-12L65 12A20 20 0 0 1 82 0h94z" fill="#C38A21"></path>
    <path d="M48 275l-26 28c-5 5-6 4-4-2l47-114c2-7-1-12-8-12H9c-7 0-10-5-7-11L65 12A20 20 0 0 1 82 0h7a16 16 0 0 0-2 5L24 156c-3 6 1 12 7 12h48c7 0 10 5 8 11l-39 96z" fill="#E19806"></path>
    <path d="M176 18l5-7c4-6 1-11-5-11H82c-7 0-15 6-17 12L2 164a10 10 0 0 0-1 5L62 23a20 20 0 0 1 16-11h91c5 0 8 2 7 6zm-60 88c-2 4 1 7 7 7h62c7 0 9 4 4 9L22 303a12 12 0 0 1-4 3 21 21 0 0 0 2-2l162-175c4-5 3-9-4-9h-60c-7 0-9-4-5-10l3-4z" fill="#E19806"></path>
    <path d="M33 264l-15 37c-2 7-1 8 4 3l167-181c5-5 3-10-4-10h-62c-7 0-10-4-6-10l64-92c4-5 2-10-5-10h-46c-23 43-53 103-56 119-7 26 14 33 32 33s5 20-22 53l-51 58z" fill="#E0AC35"></path>
  </g>

</svg>
